# xmcd
#
# Track frame offsets:
#	150
#	8264
#	18214
#	30501
#	40515
#	48962
#	60612
#	67906
#	76466
#	87763
#	97880
#	106677
#	115929
#	126446
#	136708
#	144595
#	152729
#	163474
#	172916
#	181935
#	193212
#	204294
#	214741
#	226816
#	236590
#	246532
#	257597
#	267544
#	276171
#	285588
#
# Disc length: 3957 seconds
#
# Revision: 1
# Processed by: cddbd v1.5.2PL0 Copyright (c) Steve Scherf et al.
# Submitted via: audiograbber 1.83.01
#
DISCID=900f731e
DTITLE=Johnny Cash - The Man In Black 1954-1958 Disc 3
DYEAR=1900
DGENRE=Country
TTITLE0=Sugartime
TTITLE1=Born To Lose
TTITLE2=You´re The Nearest Thing To Heaven
TTITLE3=Born To Lose
TTITLE4=Sugartime
TTITLE5=Story Of A Broken Heart
TTITLE6=Always Alone
TTITLE7=Always Alone
TTITLE8=Story Of A Broken Heart
TTITLE9=Story Of A Broken Heart
TTITLE10=You Tell Me
TTITLE11=Life Goes On
TTITLE12=You Win Again
TTITLE13=I Could Never Be Ashamed Of You
TTITLE14=Hey Good Looking
TTITLE15=I Can´t Help It
TTITLE16=Cold, Cold Heart
TTITLE17=Blue Train
TTITLE18=Katy Too
TTITLE19=The Ways Of A Woman In Love
TTITLE20=Fools Hall Of Fame
TTITLE21=The Ways Of A Woman In Love
TTITLE22=Thanks A Lot
TTITLE23=It´s Just About Time
TTITLE24=I Forgot To Remember To Forget
TTITLE25=I Just Thought Youd Like To Know
TTITLE26=It´s Just About Time
TTITLE27=I Forgot To Remember To Forget
TTITLE28=Down The Street To 301
TTITLE29=Sorry comes to all
EXTD=
EXTT0=
EXTT1=
EXTT2=
EXTT3=
EXTT4=
EXTT5=
EXTT6=
EXTT7=
EXTT8=
EXTT9=
EXTT10=
EXTT11=
EXTT12=
EXTT13=
EXTT14=
EXTT15=
EXTT16=
EXTT17=
EXTT18=
EXTT19=
EXTT20=
EXTT21=
EXTT22=
EXTT23=
EXTT24=
EXTT25=
EXTT26=
EXTT27=
EXTT28=
EXTT29=
PLAYORDER=
